<svg width="116" height="230" viewBox="0 0 116 230" fill="none" xmlns="http://www.w3.org/2000/svg">
<path opacity="0.3" d="M93.3536 115.354C93.5488 115.158 93.5488 114.842 93.3536 114.646L90.1716 111.464C89.9763 111.269 89.6597 111.269 89.4645 111.464C89.2692 111.66 89.2692 111.976 89.4645 112.172L92.2929 115L89.4645 117.828C89.2692 118.024 89.2692 118.34 89.4645 118.536C89.6597 118.731 89.9763 118.731 90.1716 118.536L93.3536 115.354ZM1 115.5H93V114.5H1V115.5Z" fill="white"/>
<path opacity="0.3" d="M115.5 1C115.5 0.723857 115.276 0.5 115 0.500003L110.5 0.5C110.224 0.500003 110 0.723855 110 1C110 1.27614 110.224 1.49999 110.5 1.5L114.5 1.5L114.5 5.5C114.5 5.77614 114.724 5.99999 115 6C115.276 6 115.5 5.77615 115.5 5.5L115.5 1ZM1.35355 115.354L115.354 1.35355L114.646 0.646444L0.646447 114.646L1.35355 115.354Z" fill="white"/>
<path opacity="0.3" d="M115.5 229C115.5 229.276 115.276 229.5 115 229.5L110.5 229.5C110.224 229.5 110 229.276 110 229C110 228.724 110.224 228.5 110.5 228.5L114.5 228.5L114.5 224.5C114.5 224.224 114.724 224 115 224C115.276 224 115.5 224.224 115.5 224.5L115.5 229ZM1.35355 114.646L115.354 228.646L114.646 229.354L0.646447 115.354L1.35355 114.646Z" fill="white"/>
</svg>
