<svg width="80" height="83" viewBox="0 0 80 83" fill="none" xmlns="http://www.w3.org/2000/svg">
<path d="M41.1669 0.493093C41.7892 1.11539 41.7892 2.12434 41.1669 2.74664C40.5446 3.36894 39.5357 3.36894 38.9134 2.74664C38.2911 2.12434 38.2911 1.11539 38.9134 0.493093C39.5357 -0.129208 40.5446 -0.129208 41.1669 0.493093Z" fill="#BFFF00"/>
<path d="M35.6082 6.05184C36.2305 6.67415 36.2305 7.68309 35.6082 8.3054C34.9859 8.9277 33.9769 8.9277 33.3546 8.3054C32.7323 7.68309 32.7323 6.67415 33.3546 6.05184C33.9769 5.42954 34.9859 5.42954 35.6082 6.05184Z" fill="#BFFF00"/>
<path d="M30.0494 11.6106C30.6717 12.2329 30.6717 13.2418 30.0494 13.8641C29.4271 14.4864 28.4182 14.4864 27.7959 13.8641C27.1736 13.2418 27.1736 12.2329 27.7959 11.6106C28.4182 10.9883 29.4271 10.9883 30.0494 11.6106Z" fill="#BFFF00"/>
<path d="M24.4907 17.1693C25.113 17.7916 25.113 18.8006 24.4907 19.4229C23.8684 20.0452 22.8594 20.0452 22.2371 19.4229C21.6148 18.8006 21.6148 17.7916 22.2371 17.1693C22.8594 16.547 23.8684 16.547 24.4907 17.1693Z" fill="#BFFF00"/>
<path d="M18.9319 22.7281C19.5542 23.3504 19.5542 24.3594 18.9319 24.9817C18.3096 25.604 17.3007 25.604 16.6784 24.9817C16.0561 24.3594 16.0561 23.3504 16.6784 22.7281C17.3007 22.1058 18.3096 22.1058 18.9319 22.7281Z" fill="#BFFF00"/>
<path d="M12.9225 28.7376C13.3373 29.1525 13.3373 29.8251 12.9225 30.24C12.5076 30.6548 11.835 30.6548 11.4201 30.24C11.0052 29.8251 11.0052 29.1525 11.4201 28.7376C11.835 28.3227 12.5076 28.3227 12.9225 28.7376Z" fill="#BFFF00"/>
<path d="M18.4813 34.2964C18.8961 34.7112 18.8961 35.3839 18.4813 35.7987C18.0664 36.2136 17.3938 36.2136 16.9789 35.7987C16.564 35.3839 16.564 34.7112 16.9789 34.2964C17.3938 33.8815 18.0664 33.8815 18.4813 34.2964Z" fill="#BFFF00"/>
<path d="M7.43881 34.2212C7.85368 34.6361 7.85368 35.3087 7.43881 35.7236C7.02395 36.1385 6.35131 36.1385 5.93645 35.7236C5.52158 35.3087 5.52158 34.6361 5.93645 34.2212C6.35131 33.8064 7.02395 33.8064 7.43881 34.2212Z" fill="#BFFF00"/>
<path d="M12.772 40.0052C13.0624 40.2956 13.0624 40.7665 12.772 41.0569C12.4816 41.3473 12.0108 41.3473 11.7204 41.0569C11.43 40.7665 11.43 40.2956 11.7204 40.0052C12.0108 39.7148 12.4816 39.7148 12.772 40.0052Z" fill="#BFFF00"/>
<path d="M12.772 40.0052C13.0624 40.2956 13.0624 40.7665 12.772 41.0569C12.4816 41.3473 12.0108 41.3473 11.7204 41.0569C11.43 40.7665 11.43 40.2956 11.7204 40.0052C12.0108 39.7148 12.4816 39.7148 12.772 40.0052Z" fill="#BFFF00"/>
<path d="M1.65484 40.0055C1.94525 40.2959 1.94525 40.7668 1.65484 41.0572C1.36443 41.3476 0.893588 41.3476 0.603181 41.0572C0.312774 40.7668 0.312774 40.2959 0.603181 40.0055C0.893588 39.7151 1.36443 39.7151 1.65484 40.0055Z" fill="#BFFF00"/>
<path d="M46.7257 6.05189C47.348 6.67419 47.348 7.68314 46.7257 8.30544C46.1034 8.92774 45.0945 8.92774 44.4722 8.30544C43.8499 7.68314 43.8499 6.67419 44.4722 6.05189C45.0945 5.42959 46.1034 5.42959 46.7257 6.05189Z" fill="#BFFF00"/>
<path d="M41.9181 10.8594C42.9553 11.8966 42.9553 13.5782 41.9181 14.6153C40.8809 15.6525 39.1994 15.6525 38.1622 14.6153C37.125 13.5782 37.125 11.8966 38.1622 10.8594C39.1994 9.82225 40.8809 9.82225 41.9181 10.8594Z" fill="#BFFF00"/>
<path d="M36.209 16.5683C37.1632 17.5225 37.1632 19.0695 36.209 20.0237C35.2548 20.9779 33.7077 20.9779 32.7535 20.0237C31.7993 19.0695 31.7993 17.5225 32.7535 16.5683C33.7077 15.6141 35.2548 15.6141 36.209 16.5683Z" fill="#BFFF00"/>
<path d="M30.425 22.3526C31.2547 23.1823 31.2547 24.5276 30.425 25.3573C29.5953 26.187 28.25 26.187 27.4203 25.3573C26.5905 24.5276 26.5905 23.1823 27.4203 22.3526C28.25 21.5228 29.5953 21.5228 30.425 22.3526Z" fill="#BFFF00"/>
<path d="M24.7159 28.0614C25.4626 28.8082 25.4626 30.0189 24.7159 30.7657C23.9691 31.5124 22.7584 31.5124 22.0116 30.7657C21.2649 30.0189 21.2649 28.8082 22.0116 28.0614C22.7584 27.3146 23.9691 27.3146 24.7159 28.0614Z" fill="#BFFF00"/>
<path d="M43.8712 16.5684C42.917 17.5226 42.917 19.0697 43.8712 20.0239C44.8254 20.9781 46.3725 20.9781 47.3267 20.0239C48.2809 19.0697 48.2809 17.5226 47.3267 16.5684C46.3725 15.6143 44.8254 15.6143 43.8712 16.5684Z" fill="#BFFF00"/>
<path d="M50.0307 11.6105C49.4084 12.2328 49.4084 13.2417 50.0307 13.864C50.653 14.4863 51.662 14.4863 52.2843 13.864C52.9066 13.2417 52.9066 12.2328 52.2843 11.6105C51.662 10.9882 50.653 10.9882 50.0307 11.6105Z" fill="#BFFF00"/>
<path d="M55.5895 17.1693C54.9672 17.7916 54.9672 18.8005 55.5895 19.4228C56.2118 20.0451 57.2208 20.0451 57.8431 19.4228C58.4654 18.8005 58.4654 17.7916 57.8431 17.1693C57.2208 16.547 56.2118 16.547 55.5895 17.1693Z" fill="#BFFF00"/>
<path d="M61.1483 22.7281C60.526 23.3504 60.526 24.3593 61.1483 24.9816C61.7706 25.6039 62.7796 25.6039 63.4019 24.9816C64.0242 24.3593 64.0242 23.3504 63.4019 22.7281C62.7796 22.1058 61.7706 22.1058 61.1483 22.7281Z" fill="#BFFF00"/>
<path d="M67.1578 28.7375C66.7429 29.1523 66.7429 29.825 67.1578 30.2398C67.5726 30.6547 68.2453 30.6547 68.6601 30.2398C69.075 29.825 69.075 29.1523 68.6601 28.7375C68.2453 28.3226 67.5726 28.3226 67.1578 28.7375Z" fill="#BFFF00"/>
<path d="M72.6415 34.2212C72.2266 34.6361 72.2266 35.3087 72.6415 35.7236C73.0564 36.1384 73.729 36.1384 74.1439 35.7236C74.5587 35.3087 74.5587 34.6361 74.1439 34.2212C73.729 33.8063 73.0564 33.8063 72.6415 34.2212Z" fill="#BFFF00"/>
<path d="M67.3079 40.0052C67.0175 40.2956 67.0175 40.7664 67.3079 41.0568C67.5983 41.3472 68.0692 41.3472 68.3596 41.0568C68.65 40.7664 68.65 40.2956 68.3596 40.0052C68.0692 39.7148 67.5983 39.7148 67.3079 40.0052Z" fill="#BFFF00"/>
<path d="M78.4255 40.0052C78.1351 40.2956 78.1351 40.7665 78.4255 41.0569C78.7159 41.3473 79.1867 41.3473 79.4771 41.0569C79.7676 40.7665 79.7676 40.2956 79.4771 40.0052C79.1867 39.7148 78.7159 39.7148 78.4255 40.0052Z" fill="#BFFF00"/>
<path d="M49.6552 22.3524C48.8255 23.1822 48.8255 24.5274 49.6552 25.3572C50.485 26.1869 51.8302 26.1869 52.66 25.3572C53.4897 24.5274 53.4897 23.1822 52.66 22.3524C51.8302 21.5227 50.485 21.5227 49.6552 22.3524Z" fill="#BFFF00"/>
<path d="M55.3644 28.0616C54.6176 28.8083 54.6176 30.0191 55.3644 30.7659C56.1112 31.5126 57.3219 31.5126 58.0687 30.7659C58.8154 30.0191 58.8154 28.8083 58.0687 28.0616C57.3219 27.3148 56.1112 27.3148 55.3644 28.0616Z" fill="#BFFF00"/>
<path d="M61.599 34.2962C61.1842 34.7111 61.1842 35.3837 61.599 35.7986C62.0139 36.2134 62.6865 36.2134 63.1014 35.7986C63.5163 35.3837 63.5163 34.7111 63.1014 34.2962C62.6865 33.8813 62.0139 33.8813 61.599 34.2962Z" fill="#BFFF00"/>
<path d="M39.2885 81.7398C38.8736 81.3249 38.8736 80.6523 39.2885 80.2375C39.7034 79.8226 40.376 79.8226 40.7909 80.2375C41.2057 80.6523 41.2057 81.3249 40.7909 81.7398C40.376 82.1547 39.7034 82.1547 39.2885 81.7398Z" fill="#BFFF00"/>
<path d="M44.8472 76.1811C44.4324 75.7662 44.4324 75.0936 44.8472 74.6787C45.2621 74.2638 45.9347 74.2638 46.3496 74.6787C46.7645 75.0936 46.7645 75.7662 46.3496 76.1811C45.9347 76.5959 45.2621 76.5959 44.8472 76.1811Z" fill="#BFFF00"/>
<path d="M38.5372 71.2231C37.7904 70.4763 37.7904 69.2656 38.5372 68.5188C39.2839 67.7721 40.4947 67.7721 41.2414 68.5188C41.9882 69.2656 41.9882 70.4763 41.2414 71.2231C40.4947 71.9698 39.2839 71.9698 38.5372 71.2231Z" fill="#BFFF00"/>
<path d="M33.2039 65.5893C32.5816 64.967 32.5816 63.958 33.2039 63.3358C33.8262 62.7134 34.8351 62.7134 35.4574 63.3358C36.0797 63.958 36.0797 64.967 35.4574 65.5893C34.8351 66.2116 33.8262 66.2116 33.2039 65.5893Z" fill="#BFFF00"/>
<path d="M28.3212 59.5048C28.0308 59.2144 28.0308 58.7435 28.3212 58.4531C28.6117 58.1627 29.0825 58.1627 29.3729 58.4531C29.6633 58.7435 29.6633 59.2144 29.3729 59.5048C29.0825 59.7952 28.6117 59.7952 28.3212 59.5048Z" fill="#BFFF00"/>
<path d="M44.3214 65.5893C43.6991 64.967 43.6991 63.9581 44.3214 63.3358C44.9437 62.7135 45.9527 62.7135 46.575 63.3358C47.1973 63.9581 47.1973 64.967 46.575 65.5893C45.9527 66.2116 44.9437 66.2116 44.3214 65.5893Z" fill="#BFFF00"/>
<path d="M50.4813 59.4298C50.1909 59.1394 50.1909 58.6686 50.4813 58.3782C50.7717 58.0878 51.2425 58.0878 51.5329 58.3782C51.8234 58.6686 51.8234 59.1394 51.5329 59.4298C51.2425 59.7202 50.7717 59.7202 50.4813 59.4298Z" fill="#BFFF00"/>
<path d="M50.406 70.6223C49.9911 70.2074 49.9911 69.5348 50.406 69.1199C50.8209 68.7051 51.4935 68.7051 51.9084 69.1199C52.3232 69.5348 52.3232 70.2074 51.9084 70.6223C51.4935 71.0372 50.8209 71.0372 50.406 70.6223Z" fill="#BFFF00"/>
<path d="M55.8146 65.2137C55.3997 64.7989 55.3997 64.1263 55.8146 63.7114C56.2294 63.2965 56.9021 63.2965 57.3169 63.7114C57.7318 64.1263 57.7318 64.7989 57.3169 65.2137C56.9021 65.6286 56.2294 65.6286 55.8146 65.2137Z" fill="#BFFF00"/>
<path d="M61.7487 59.2793C61.4583 58.9889 61.4583 58.518 61.7487 58.2276C62.0391 57.9372 62.51 57.9372 62.8004 58.2276C63.0908 58.518 63.0908 58.9889 62.8004 59.2793C62.51 59.5697 62.0391 59.5697 61.7487 59.2793Z" fill="#BFFF00"/>
<path d="M33.8804 76.3316C33.4655 75.9168 33.4655 75.2441 33.8804 74.8293C34.2952 74.4144 34.9679 74.4144 35.3827 74.8293C35.7976 75.2441 35.7976 75.9168 35.3827 76.3316C34.9679 76.7465 34.2952 76.7465 33.8804 76.3316Z" fill="#BFFF00"/>
<path d="M29.6732 70.6221C30.0881 70.2073 30.0881 69.5346 29.6732 69.1198C29.2584 68.7049 28.5857 68.7049 28.1709 69.1198C27.756 69.5346 27.756 70.2073 28.1709 70.6221C28.5857 71.037 29.2584 71.037 29.6732 70.6221Z" fill="#BFFF00"/>
<path d="M23.9643 64.9132C24.2547 64.6228 24.2547 64.1519 23.9643 63.8615C23.6739 63.5711 23.2031 63.5711 22.9127 63.8615C22.6223 64.1519 22.6223 64.6228 22.9127 64.9132C23.2031 65.2036 23.6739 65.2036 23.9643 64.9132Z" fill="#BFFF00"/>
<path d="M18.105 59.0538C18.3954 58.7634 18.3954 58.2926 18.105 58.0022C17.8145 57.7117 17.3437 57.7117 17.0533 58.0022C16.7629 58.2926 16.7629 58.7634 17.0533 59.0538C17.3437 59.3442 17.8145 59.3442 18.105 59.0538Z" fill="#BFFF00"/>
</svg>
