<svg width="129" height="133" viewBox="0 0 129 133" fill="none" xmlns="http://www.w3.org/2000/svg">
<path d="M66.0857 0.756319C67.0941 1.76474 67.0941 3.39973 66.0857 4.40815C65.0772 5.41658 63.4423 5.41658 62.4338 4.40815C61.4254 3.39973 61.4254 1.76474 62.4338 0.756319C63.4423 -0.252106 65.0772 -0.252106 66.0857 0.756319Z" fill="#D9D9D9"/>
<path d="M66.0857 0.756319C67.0941 1.76474 67.0941 3.39973 66.0857 4.40815C65.0772 5.41658 63.4423 5.41658 62.4338 4.40815C61.4254 3.39973 61.4254 1.76474 62.4338 0.756319C63.4423 -0.252106 65.0772 -0.252106 66.0857 0.756319Z" fill="url(#paint0_linear_398_105)"/>
<path d="M57.0778 9.76416C58.0862 10.7726 58.0862 12.4076 57.0778 13.416C56.0694 14.4244 54.4344 14.4244 53.426 13.416C52.4176 12.4076 52.4176 10.7726 53.426 9.76416C54.4344 8.75574 56.0694 8.75574 57.0778 9.76416Z" fill="#D9D9D9"/>
<path d="M57.0778 9.76416C58.0862 10.7726 58.0862 12.4076 57.0778 13.416C56.0694 14.4244 54.4344 14.4244 53.426 13.416C52.4176 12.4076 52.4176 10.7726 53.426 9.76416C54.4344 8.75574 56.0694 8.75574 57.0778 9.76416Z" fill="url(#paint1_linear_398_105)"/>
<path d="M48.07 18.772C49.0784 19.7804 49.0784 21.4154 48.07 22.4238C47.0616 23.4323 45.4266 23.4323 44.4181 22.4238C43.4097 21.4154 43.4097 19.7804 44.4181 18.772C45.4266 17.7636 47.0616 17.7636 48.07 18.772Z" fill="#D9D9D9"/>
<path d="M48.07 18.772C49.0784 19.7804 49.0784 21.4154 48.07 22.4238C47.0616 23.4323 45.4266 23.4323 44.4181 22.4238C43.4097 21.4154 43.4097 19.7804 44.4181 18.772C45.4266 17.7636 47.0616 17.7636 48.07 18.772Z" fill="url(#paint2_linear_398_105)"/>
<path d="M39.0621 27.7799C40.0706 28.7883 40.0706 30.4233 39.0621 31.4317C38.0537 32.4401 36.4187 32.4401 35.4103 31.4317C34.4019 30.4233 34.4019 28.7883 35.4103 27.7799C36.4187 26.7714 38.0537 26.7714 39.0621 27.7799Z" fill="#D9D9D9"/>
<path d="M39.0621 27.7799C40.0706 28.7883 40.0706 30.4233 39.0621 31.4317C38.0537 32.4401 36.4187 32.4401 35.4103 31.4317C34.4019 30.4233 34.4019 28.7883 35.4103 27.7799C36.4187 26.7714 38.0537 26.7714 39.0621 27.7799Z" fill="url(#paint3_linear_398_105)"/>
<path d="M30.0543 36.7877C31.0627 37.7961 31.0627 39.4311 30.0543 40.4395C29.0459 41.448 27.4109 41.448 26.4024 40.4395C25.394 39.4311 25.394 37.7961 26.4024 36.7877C27.4109 35.7793 29.0459 35.7793 30.0543 36.7877Z" fill="#D9D9D9"/>
<path d="M30.0543 36.7877C31.0627 37.7961 31.0627 39.4311 30.0543 40.4395C29.0459 41.448 27.4109 41.448 26.4024 40.4395C25.394 39.4311 25.394 37.7961 26.4024 36.7877C27.4109 35.7793 29.0459 35.7793 30.0543 36.7877Z" fill="url(#paint4_linear_398_105)"/>
<path d="M20.3161 46.5259C20.9884 47.1982 20.9884 48.2882 20.3161 48.9605C19.6438 49.6328 18.5538 49.6328 17.8816 48.9605C17.2093 48.2882 17.2093 47.1982 17.8816 46.5259C18.5538 45.8537 19.6438 45.8537 20.3161 46.5259Z" fill="#D9D9D9"/>
<path d="M20.3161 46.5259C20.9884 47.1982 20.9884 48.2882 20.3161 48.9605C19.6438 49.6328 18.5538 49.6328 17.8816 48.9605C17.2093 48.2882 17.2093 47.1982 17.8816 46.5259C18.5538 45.8537 19.6438 45.8537 20.3161 46.5259Z" fill="url(#paint5_linear_398_105)"/>
<path d="M29.324 55.5339C29.9963 56.2061 29.9963 57.2961 29.324 57.9684C28.6517 58.6407 27.5618 58.6407 26.8895 57.9684C26.2172 57.2961 26.2172 56.2061 26.8895 55.5339C27.5618 54.8616 28.6517 54.8616 29.324 55.5339Z" fill="#D9D9D9"/>
<path d="M29.324 55.5339C29.9963 56.2061 29.9963 57.2961 29.324 57.9684C28.6517 58.6407 27.5618 58.6407 26.8895 57.9684C26.2172 57.2961 26.2172 56.2061 26.8895 55.5339C27.5618 54.8616 28.6517 54.8616 29.324 55.5339Z" fill="url(#paint6_linear_398_105)"/>
<path d="M11.43 55.4121C12.1022 56.0844 12.1022 57.1744 11.43 57.8466C10.7577 58.5189 9.66768 58.5189 8.9954 57.8466C8.32311 57.1744 8.32311 56.0844 8.9954 55.4121C9.66768 54.7398 10.7577 54.7398 11.43 55.4121Z" fill="#D9D9D9"/>
<path d="M11.43 55.4121C12.1022 56.0844 12.1022 57.1744 11.43 57.8466C10.7577 58.5189 9.66768 58.5189 8.9954 57.8466C8.32311 57.1744 8.32311 56.0844 8.9954 55.4121C9.66768 54.7398 10.7577 54.7398 11.43 55.4121Z" fill="url(#paint7_linear_398_105)"/>
<path d="M20.0723 64.7849C20.5429 65.2555 20.5429 66.0185 20.0723 66.4891C19.6017 66.9597 18.8387 66.9597 18.3681 66.4891C17.8975 66.0185 17.8975 65.2555 18.3681 64.7849C18.8387 64.3143 19.6017 64.3143 20.0723 64.7849Z" fill="#D9D9D9"/>
<path d="M20.0723 64.7849C20.5429 65.2555 20.5429 66.0185 20.0723 66.4891C19.6017 66.9597 18.8387 66.9597 18.3681 66.4891C17.8975 66.0185 17.8975 65.2555 18.3681 64.7849C18.8387 64.3143 19.6017 64.3143 20.0723 64.7849Z" fill="url(#paint8_linear_398_105)"/>
<path d="M20.0723 64.7849C20.5429 65.2555 20.5429 66.0185 20.0723 66.4891C19.6017 66.9597 18.8387 66.9597 18.3681 66.4891C17.8975 66.0185 17.8975 65.2555 18.3681 64.7849C18.8387 64.3143 19.6017 64.3143 20.0723 64.7849Z" fill="#D9D9D9"/>
<path d="M20.0723 64.7849C20.5429 65.2555 20.5429 66.0185 20.0723 66.4891C19.6017 66.9597 18.8387 66.9597 18.3681 66.4891C17.8975 66.0185 17.8975 65.2555 18.3681 64.7849C18.8387 64.3143 19.6017 64.3143 20.0723 64.7849Z" fill="url(#paint9_linear_398_105)"/>
<path d="M2.05714 64.7854C2.52774 65.256 2.52774 66.019 2.05714 66.4896C1.58654 66.9602 0.823548 66.9602 0.352949 66.4896C-0.11765 66.019 -0.11765 65.256 0.352949 64.7854C0.823548 64.3148 1.58654 64.3148 2.05714 64.7854Z" fill="#D9D9D9"/>
<path d="M2.05714 64.7854C2.52774 65.256 2.52774 66.019 2.05714 66.4896C1.58654 66.9602 0.823548 66.9602 0.352949 66.4896C-0.11765 66.019 -0.11765 65.256 0.352949 64.7854C0.823548 64.3148 1.58654 64.3148 2.05714 64.7854Z" fill="url(#paint10_linear_398_105)"/>
<path d="M75.0936 9.76423C76.102 10.7727 76.102 12.4076 75.0936 13.4161C74.0852 14.4245 72.4502 14.4245 71.4417 13.4161C70.4333 12.4076 70.4333 10.7727 71.4417 9.76423C72.4502 8.75581 74.0852 8.75581 75.0936 9.76423Z" fill="#D9D9D9"/>
<path d="M75.0936 9.76423C76.102 10.7727 76.102 12.4076 75.0936 13.4161C74.0852 14.4245 72.4502 14.4245 71.4417 13.4161C70.4333 12.4076 70.4333 10.7727 71.4417 9.76423C72.4502 8.75581 74.0852 8.75581 75.0936 9.76423Z" fill="url(#paint11_linear_398_105)"/>
<path d="M67.3029 17.5547C68.9837 19.2354 68.9837 21.9604 67.3029 23.6411C65.6222 25.3218 62.8973 25.3218 61.2166 23.6411C59.5358 21.9604 59.5358 19.2354 61.2166 17.5547C62.8973 15.874 65.6222 15.874 67.3029 17.5547Z" fill="#D9D9D9"/>
<path d="M67.3029 17.5547C68.9837 19.2354 68.9837 21.9604 67.3029 23.6411C65.6222 25.3218 62.8973 25.3218 61.2166 23.6411C59.5358 21.9604 59.5358 19.2354 61.2166 17.5547C62.8973 15.874 65.6222 15.874 67.3029 17.5547Z" fill="url(#paint12_linear_398_105)"/>
<path d="M58.0514 26.8058C59.5977 28.3521 59.5977 30.859 58.0514 32.4053C56.5052 33.9515 53.9982 33.9515 52.452 32.4053C50.9057 30.859 50.9057 28.3521 52.452 26.8058C53.9982 25.2596 56.5052 25.2596 58.0514 26.8058Z" fill="#D9D9D9"/>
<path d="M58.0514 26.8058C59.5977 28.3521 59.5977 30.859 58.0514 32.4053C56.5052 33.9515 53.9982 33.9515 52.452 32.4053C50.9057 30.859 50.9057 28.3521 52.452 26.8058C53.9982 25.2596 56.5052 25.2596 58.0514 26.8058Z" fill="url(#paint13_linear_398_105)"/>
<path d="M48.6786 36.1791C50.0232 37.5237 50.0232 39.7037 48.6786 41.0482C47.334 42.3928 45.1541 42.3928 43.8095 41.0482C42.4649 39.7037 42.4649 37.5237 43.8095 36.1791C45.1541 34.8346 47.334 34.8346 48.6786 36.1791Z" fill="#D9D9D9"/>
<path d="M48.6786 36.1791C50.0232 37.5237 50.0232 39.7037 48.6786 41.0482C47.334 42.3928 45.1541 42.3928 43.8095 41.0482C42.4649 39.7037 42.4649 37.5237 43.8095 36.1791C45.1541 34.8346 47.334 34.8346 48.6786 36.1791Z" fill="url(#paint14_linear_398_105)"/>
<path d="M39.4271 45.4302C40.6372 46.6403 40.6372 48.6023 39.4271 49.8124C38.217 51.0225 36.255 51.0225 35.0449 49.8124C33.8348 48.6023 33.8348 46.6403 35.0449 45.4302C36.255 44.2201 38.217 44.2201 39.4271 45.4302Z" fill="#D9D9D9"/>
<path d="M39.4271 45.4302C40.6372 46.6403 40.6372 48.6023 39.4271 49.8124C38.217 51.0225 36.255 51.0225 35.0449 49.8124C33.8348 48.6023 33.8348 46.6403 35.0449 45.4302C36.255 44.2201 38.217 44.2201 39.4271 45.4302Z" fill="url(#paint15_linear_398_105)"/>
<path d="M70.4679 26.8061C68.9217 28.3524 68.9217 30.8593 70.4679 32.4056C72.0142 33.9518 74.5211 33.9518 76.0674 32.4056C77.6136 30.8593 77.6136 28.3524 76.0674 26.8061C74.5211 25.2598 72.0142 25.2598 70.4679 26.8061Z" fill="#D9D9D9"/>
<path d="M70.4679 26.8061C68.9217 28.3524 68.9217 30.8593 70.4679 32.4056C72.0142 33.9518 74.5211 33.9518 76.0674 32.4056C77.6136 30.8593 77.6136 28.3524 76.0674 26.8061C74.5211 25.2598 72.0142 25.2598 70.4679 26.8061Z" fill="url(#paint16_linear_398_105)"/>
<path d="M80.4493 18.7718C79.4409 19.7802 79.4409 21.4152 80.4493 22.4236C81.4577 23.432 83.0927 23.432 84.1011 22.4236C85.1096 21.4152 85.1096 19.7802 84.1011 18.7718C83.0927 17.7634 81.4577 17.7634 80.4493 18.7718Z" fill="#D9D9D9"/>
<path d="M80.4493 18.7718C79.4409 19.7802 79.4409 21.4152 80.4493 22.4236C81.4577 23.432 83.0927 23.432 84.1011 22.4236C85.1096 21.4152 85.1096 19.7802 84.1011 18.7718C83.0927 17.7634 81.4577 17.7634 80.4493 18.7718Z" fill="url(#paint17_linear_398_105)"/>
<path d="M89.4572 27.7797C88.4488 28.7881 88.4488 30.4231 89.4572 31.4315C90.4656 32.44 92.1006 32.44 93.1091 31.4315C94.1175 30.4231 94.1175 28.7881 93.1091 27.7797C92.1006 26.7713 90.4656 26.7713 89.4572 27.7797Z" fill="#D9D9D9"/>
<path d="M89.4572 27.7797C88.4488 28.7881 88.4488 30.4231 89.4572 31.4315C90.4656 32.44 92.1006 32.44 93.1091 31.4315C94.1175 30.4231 94.1175 28.7881 93.1091 27.7797C92.1006 26.7713 90.4656 26.7713 89.4572 27.7797Z" fill="url(#paint18_linear_398_105)"/>
<path d="M98.4651 36.7876C97.4567 37.7961 97.4567 39.431 98.4651 40.4395C99.4736 41.4479 101.109 41.4479 102.117 40.4395C103.125 39.431 103.125 37.7961 102.117 36.7876C101.109 35.7792 99.4736 35.7792 98.4651 36.7876Z" fill="#D9D9D9"/>
<path d="M98.4651 36.7876C97.4567 37.7961 97.4567 39.431 98.4651 40.4395C99.4736 41.4479 101.109 41.4479 102.117 40.4395C103.125 39.431 103.125 37.7961 102.117 36.7876C101.109 35.7792 99.4736 35.7792 98.4651 36.7876Z" fill="url(#paint19_linear_398_105)"/>
<path d="M108.203 46.5257C107.531 47.198 107.531 48.288 108.203 48.9603C108.876 49.6326 109.966 49.6326 110.638 48.9603C111.31 48.288 111.31 47.198 110.638 46.5257C109.966 45.8534 108.876 45.8534 108.203 46.5257Z" fill="#D9D9D9"/>
<path d="M108.203 46.5257C107.531 47.198 107.531 48.288 108.203 48.9603C108.876 49.6326 109.966 49.6326 110.638 48.9603C111.31 48.288 111.31 47.198 110.638 46.5257C109.966 45.8534 108.876 45.8534 108.203 46.5257Z" fill="url(#paint20_linear_398_105)"/>
<path d="M117.09 55.412C116.417 56.0843 116.417 57.1743 117.09 57.8466C117.762 58.5189 118.852 58.5189 119.524 57.8466C120.196 57.1743 120.196 56.0843 119.524 55.412C118.852 54.7397 117.762 54.7397 117.09 55.412Z" fill="#D9D9D9"/>
<path d="M117.09 55.412C116.417 56.0843 116.417 57.1743 117.09 57.8466C117.762 58.5189 118.852 58.5189 119.524 57.8466C120.196 57.1743 120.196 56.0843 119.524 55.412C118.852 54.7397 117.762 54.7397 117.09 55.412Z" fill="url(#paint21_linear_398_105)"/>
<path d="M108.447 64.7848C107.976 65.2554 107.976 66.0184 108.447 66.489C108.917 66.9596 109.68 66.9596 110.151 66.489C110.621 66.0184 110.621 65.2554 110.151 64.7848C109.68 64.3142 108.917 64.3142 108.447 64.7848Z" fill="#D9D9D9"/>
<path d="M108.447 64.7848C107.976 65.2554 107.976 66.0184 108.447 66.489C108.917 66.9596 109.68 66.9596 110.151 66.489C110.621 66.0184 110.621 65.2554 110.151 64.7848C109.68 64.3142 108.917 64.3142 108.447 64.7848Z" fill="url(#paint22_linear_398_105)"/>
<path d="M126.462 64.7849C125.992 65.2555 125.992 66.0185 126.462 66.4891C126.933 66.9597 127.696 66.9597 128.167 66.4891C128.637 66.0185 128.637 65.2555 128.167 64.7849C127.696 64.3143 126.933 64.3143 126.462 64.7849Z" fill="#D9D9D9"/>
<path d="M126.462 64.7849C125.992 65.2555 125.992 66.0185 126.462 66.4891C126.933 66.9597 127.696 66.9597 128.167 66.4891C128.637 66.0185 128.637 65.2555 128.167 64.7849C127.696 64.3143 126.933 64.3143 126.462 64.7849Z" fill="url(#paint23_linear_398_105)"/>
<path d="M79.8408 36.1789C78.4962 37.5235 78.4962 39.7035 79.8408 41.048C81.1854 42.3926 83.3653 42.3926 84.7099 41.048C86.0545 39.7035 86.0545 37.5235 84.7099 36.1789C83.3653 34.8343 81.1854 34.8343 79.8408 36.1789Z" fill="#D9D9D9"/>
<path d="M79.8408 36.1789C78.4962 37.5235 78.4962 39.7035 79.8408 41.048C81.1854 42.3926 83.3653 42.3926 84.7099 41.048C86.0545 39.7035 86.0545 37.5235 84.7099 36.1789C83.3653 34.8343 81.1854 34.8343 79.8408 36.1789Z" fill="url(#paint24_linear_398_105)"/>
<path d="M89.0924 45.4305C87.8823 46.6406 87.8823 48.6026 89.0924 49.8127C90.3025 51.0228 92.2645 51.0228 93.4746 49.8127C94.6847 48.6026 94.6847 46.6406 93.4746 45.4305C92.2645 44.2204 90.3025 44.2204 89.0924 45.4305Z" fill="#D9D9D9"/>
<path d="M89.0924 45.4305C87.8823 46.6406 87.8823 48.6026 89.0924 49.8127C90.3025 51.0228 92.2645 51.0228 93.4746 49.8127C94.6847 48.6026 94.6847 46.6406 93.4746 45.4305C92.2645 44.2204 90.3025 44.2204 89.0924 45.4305Z" fill="url(#paint25_linear_398_105)"/>
<path d="M99.1955 55.5336C98.5232 56.2059 98.5232 57.2958 99.1955 57.9681C99.8678 58.6404 100.958 58.6404 101.63 57.9681C102.302 57.2958 102.302 56.2059 101.63 55.5336C100.958 54.8613 99.8678 54.8613 99.1955 55.5336Z" fill="#D9D9D9"/>
<path d="M99.1955 55.5336C98.5232 56.2059 98.5232 57.2958 99.1955 57.9681C99.8678 58.6404 100.958 58.6404 101.63 57.9681C102.302 57.2958 102.302 56.2059 101.63 55.5336C100.958 54.8613 99.8678 54.8613 99.1955 55.5336Z" fill="url(#paint26_linear_398_105)"/>
<path d="M63.0417 132.415C62.3694 131.743 62.3694 130.653 63.0417 129.98C63.714 129.308 64.804 129.308 65.4763 129.98C66.1485 130.653 66.1485 131.743 65.4763 132.415C64.804 133.087 63.714 133.087 63.0417 132.415Z" fill="#D9D9D9"/>
<path d="M63.0417 132.415C62.3694 131.743 62.3694 130.653 63.0417 129.98C63.714 129.308 64.804 129.308 65.4763 129.98C66.1485 130.653 66.1485 131.743 65.4763 132.415C64.804 133.087 63.714 133.087 63.0417 132.415Z" fill="url(#paint27_linear_398_105)"/>
<path d="M72.0496 123.407C71.3773 122.735 71.3773 121.645 72.0496 120.973C72.7218 120.3 73.8118 120.3 74.4841 120.973C75.1564 121.645 75.1564 122.735 74.4841 123.407C73.8118 124.079 72.7218 124.079 72.0496 123.407Z" fill="#D9D9D9"/>
<path d="M72.0496 123.407C71.3773 122.735 71.3773 121.645 72.0496 120.973C72.7218 120.3 73.8118 120.3 74.4841 120.973C75.1564 121.645 75.1564 122.735 74.4841 123.407C73.8118 124.079 72.7218 124.079 72.0496 123.407Z" fill="url(#paint28_linear_398_105)"/>
<path d="M61.8242 115.373C60.6141 114.163 60.6141 112.201 61.8242 110.991C63.0343 109.781 64.9963 109.781 66.2064 110.991C67.4165 112.201 67.4165 114.163 66.2064 115.373C64.9963 116.583 63.0343 116.583 61.8242 115.373Z" fill="#D9D9D9"/>
<path d="M61.8242 115.373C60.6141 114.163 60.6141 112.201 61.8242 110.991C63.0343 109.781 64.9963 109.781 66.2064 110.991C67.4165 112.201 67.4165 114.163 66.2064 115.373C64.9963 116.583 63.0343 116.583 61.8242 115.373Z" fill="url(#paint29_linear_398_105)"/>
<path d="M53.1817 106.243C52.1733 105.235 52.1733 103.6 53.1817 102.592C54.1901 101.583 55.8251 101.583 56.8335 102.592C57.842 103.6 57.8419 105.235 56.8335 106.243C55.8251 107.252 54.1901 107.252 53.1817 106.243Z" fill="#D9D9D9"/>
<path d="M53.1817 106.243C52.1733 105.235 52.1733 103.6 53.1817 102.592C54.1901 101.583 55.8251 101.583 56.8335 102.592C57.842 103.6 57.8419 105.235 56.8335 106.243C55.8251 107.252 54.1901 107.252 53.1817 106.243Z" fill="url(#paint30_linear_398_105)"/>
<path d="M45.2695 96.3836C44.7989 95.913 44.7989 95.15 45.2695 94.6794C45.7401 94.2088 46.5031 94.2088 46.9737 94.6794C47.4443 95.15 47.4443 95.913 46.9737 96.3836C46.5031 96.8542 45.7401 96.8542 45.2695 96.3836Z" fill="#D9D9D9"/>
<path d="M45.2695 96.3836C44.7989 95.913 44.7989 95.15 45.2695 94.6794C45.7401 94.2088 46.5031 94.2088 46.9737 94.6794C47.4443 95.15 47.4443 95.913 46.9737 96.3836C46.5031 96.8542 45.7401 96.8542 45.2695 96.3836Z" fill="url(#paint31_linear_398_105)"/>
<path d="M71.1975 106.243C70.189 105.235 70.189 103.6 71.1975 102.592C72.2059 101.583 73.8409 101.583 74.8493 102.592C75.8577 103.6 75.8577 105.235 74.8493 106.243C73.8409 107.252 72.2059 107.252 71.1975 106.243Z" fill="#D9D9D9"/>
<path d="M71.1975 106.243C70.189 105.235 70.189 103.6 71.1975 102.592C72.2059 101.583 73.8409 101.583 74.8493 102.592C75.8577 103.6 75.8577 105.235 74.8493 106.243C73.8409 107.252 72.2059 107.252 71.1975 106.243Z" fill="url(#paint32_linear_398_105)"/>
<path d="M81.1794 96.2621C80.7088 95.7915 80.7088 95.0285 81.1794 94.5579C81.65 94.0873 82.413 94.0873 82.8836 94.5579C83.3542 95.0285 83.3542 95.7915 82.8836 96.2621C82.413 96.7327 81.65 96.7327 81.1794 96.2621Z" fill="#D9D9D9"/>
<path d="M81.1794 96.2621C80.7088 95.7915 80.7088 95.0285 81.1794 94.5579C81.65 94.0873 82.413 94.0873 82.8836 94.5579C83.3542 95.0285 83.3542 95.7915 82.8836 96.2621C82.413 96.7327 81.65 96.7327 81.1794 96.2621Z" fill="url(#paint33_linear_398_105)"/>
<path d="M81.0574 114.399C80.3851 113.727 80.3851 112.637 81.0574 111.965C81.7297 111.292 82.8197 111.292 83.492 111.965C84.1642 112.637 84.1642 113.727 83.492 114.399C82.8197 115.072 81.7297 115.072 81.0574 114.399Z" fill="#D9D9D9"/>
<path d="M81.0574 114.399C80.3851 113.727 80.3851 112.637 81.0574 111.965C81.7297 111.292 82.8197 111.292 83.492 111.965C84.1642 112.637 84.1642 113.727 83.492 114.399C82.8197 115.072 81.7297 115.072 81.0574 114.399Z" fill="url(#paint34_linear_398_105)"/>
<path d="M89.8219 105.635C89.1496 104.963 89.1496 103.873 89.8219 103.2C90.4941 102.528 91.5841 102.528 92.2564 103.2C92.9287 103.873 92.9287 104.963 92.2564 105.635C91.5841 106.307 90.4941 106.307 89.8219 105.635Z" fill="#D9D9D9"/>
<path d="M89.8219 105.635C89.1496 104.963 89.1496 103.873 89.8219 103.2C90.4941 102.528 91.5841 102.528 92.2564 103.2C92.9287 103.873 92.9287 104.963 92.2564 105.635C91.5841 106.307 90.4941 106.307 89.8219 105.635Z" fill="url(#paint35_linear_398_105)"/>
<path d="M99.4381 96.0181C98.9675 95.5475 98.9675 94.7845 99.4381 94.3139C99.9087 93.8433 100.672 93.8433 101.142 94.3139C101.613 94.7845 101.613 95.5475 101.142 96.0181C100.672 96.4887 99.9087 96.4887 99.4381 96.0181Z" fill="#D9D9D9"/>
<path d="M99.4381 96.0181C98.9675 95.5475 98.9675 94.7845 99.4381 94.3139C99.9087 93.8433 100.672 93.8433 101.142 94.3139C101.613 94.7845 101.613 95.5475 101.142 96.0181C100.672 96.4887 99.9087 96.4887 99.4381 96.0181Z" fill="url(#paint36_linear_398_105)"/>
<path d="M54.2779 123.651C53.6056 122.979 53.6056 121.889 54.2779 121.217C54.9502 120.544 56.0402 120.544 56.7125 121.217C57.3848 121.889 57.3848 122.979 56.7125 123.651C56.0402 124.323 54.9502 124.323 54.2779 123.651Z" fill="#D9D9D9"/>
<path d="M54.2779 123.651C53.6056 122.979 53.6056 121.889 54.2779 121.217C54.9502 120.544 56.0402 120.544 56.7125 121.217C57.3848 121.889 57.3848 122.979 56.7125 123.651C56.0402 124.323 54.9502 124.323 54.2779 123.651Z" fill="url(#paint37_linear_398_105)"/>
<path d="M47.4604 114.399C48.1327 113.727 48.1327 112.637 47.4604 111.964C46.7881 111.292 45.6981 111.292 45.0258 111.964C44.3535 112.637 44.3535 113.727 45.0258 114.399C45.6981 115.071 46.7881 115.071 47.4604 114.399Z" fill="#D9D9D9"/>
<path d="M47.4604 114.399C48.1327 113.727 48.1327 112.637 47.4604 111.964C46.7881 111.292 45.6981 111.292 45.0258 111.964C44.3535 112.637 44.3535 113.727 45.0258 114.399C45.6981 115.071 46.7881 115.071 47.4604 114.399Z" fill="url(#paint38_linear_398_105)"/>
<path d="M38.2092 105.148C38.6798 104.677 38.6798 103.914 38.2092 103.444C37.7386 102.973 36.9756 102.973 36.505 103.444C36.0344 103.914 36.0344 104.677 36.505 105.148C36.9756 105.618 37.7386 105.618 38.2092 105.148Z" fill="#D9D9D9"/>
<path d="M38.2092 105.148C38.6798 104.677 38.6798 103.914 38.2092 103.444C37.7386 102.973 36.9756 102.973 36.505 103.444C36.0344 103.914 36.0344 104.677 36.505 105.148C36.9756 105.618 37.7386 105.618 38.2092 105.148Z" fill="url(#paint39_linear_398_105)"/>
<path d="M28.7142 95.6528C29.1848 95.1822 29.1848 94.4192 28.7142 93.9486C28.2436 93.478 27.4806 93.478 27.01 93.9486C26.5394 94.4192 26.5394 95.1822 27.01 95.6528C27.4806 96.1234 28.2436 96.1234 28.7142 95.6528Z" fill="#D9D9D9"/>
<path d="M28.7142 95.6528C29.1848 95.1822 29.1848 94.4192 28.7142 93.9486C28.2436 93.478 27.4806 93.478 27.01 93.9486C26.5394 94.4192 26.5394 95.1822 27.01 95.6528C27.4806 96.1234 28.2436 96.1234 28.7142 95.6528Z" fill="url(#paint40_linear_398_105)"/>
<defs>
<linearGradient id="paint0_linear_398_105" x1="-49.3868" y1="76.645" x2="101.407" y2="148.07" gradientUnits="userSpaceOnUse">
<stop stop-color="#696E82"/>
<stop offset="1" stop-color="#16181E"/>
</linearGradient>
<linearGradient id="paint1_linear_398_105" x1="-49.3868" y1="76.645" x2="101.407" y2="148.07" gradientUnits="userSpaceOnUse">
<stop stop-color="#696E82"/>
<stop offset="1" stop-color="#16181E"/>
</linearGradient>
<linearGradient id="paint2_linear_398_105" x1="-49.3868" y1="76.645" x2="101.407" y2="148.07" gradientUnits="userSpaceOnUse">
<stop stop-color="#696E82"/>
<stop offset="1" stop-color="#16181E"/>
</linearGradient>
<linearGradient id="paint3_linear_398_105" x1="-49.3868" y1="76.645" x2="101.407" y2="148.07" gradientUnits="userSpaceOnUse">
<stop stop-color="#696E82"/>
<stop offset="1" stop-color="#16181E"/>
</linearGradient>
<linearGradient id="paint4_linear_398_105" x1="-49.3868" y1="76.645" x2="101.407" y2="148.07" gradientUnits="userSpaceOnUse">
<stop stop-color="#696E82"/>
<stop offset="1" stop-color="#16181E"/>
</linearGradient>
<linearGradient id="paint5_linear_398_105" x1="-49.3868" y1="76.645" x2="101.407" y2="148.07" gradientUnits="userSpaceOnUse">
<stop stop-color="#696E82"/>
<stop offset="1" stop-color="#16181E"/>
</linearGradient>
<linearGradient id="paint6_linear_398_105" x1="-49.3868" y1="76.645" x2="101.407" y2="148.07" gradientUnits="userSpaceOnUse">
<stop stop-color="#696E82"/>
<stop offset="1" stop-color="#16181E"/>
</linearGradient>
<linearGradient id="paint7_linear_398_105" x1="-49.3868" y1="76.645" x2="101.407" y2="148.07" gradientUnits="userSpaceOnUse">
<stop stop-color="#696E82"/>
<stop offset="1" stop-color="#16181E"/>
</linearGradient>
<linearGradient id="paint8_linear_398_105" x1="-49.3868" y1="76.645" x2="101.407" y2="148.07" gradientUnits="userSpaceOnUse">
<stop stop-color="#696E82"/>
<stop offset="1" stop-color="#16181E"/>
</linearGradient>
<linearGradient id="paint9_linear_398_105" x1="-49.3868" y1="76.645" x2="101.407" y2="148.07" gradientUnits="userSpaceOnUse">
<stop stop-color="#696E82"/>
<stop offset="1" stop-color="#16181E"/>
</linearGradient>
<linearGradient id="paint10_linear_398_105" x1="-49.3868" y1="76.645" x2="101.407" y2="148.07" gradientUnits="userSpaceOnUse">
<stop stop-color="#696E82"/>
<stop offset="1" stop-color="#16181E"/>
</linearGradient>
<linearGradient id="paint11_linear_398_105" x1="-49.3868" y1="76.645" x2="101.407" y2="148.07" gradientUnits="userSpaceOnUse">
<stop stop-color="#696E82"/>
<stop offset="1" stop-color="#16181E"/>
</linearGradient>
<linearGradient id="paint12_linear_398_105" x1="-49.3868" y1="76.645" x2="101.407" y2="148.07" gradientUnits="userSpaceOnUse">
<stop stop-color="#696E82"/>
<stop offset="1" stop-color="#16181E"/>
</linearGradient>
<linearGradient id="paint13_linear_398_105" x1="-49.3868" y1="76.645" x2="101.407" y2="148.07" gradientUnits="userSpaceOnUse">
<stop stop-color="#696E82"/>
<stop offset="1" stop-color="#16181E"/>
</linearGradient>
<linearGradient id="paint14_linear_398_105" x1="-49.3868" y1="76.645" x2="101.407" y2="148.07" gradientUnits="userSpaceOnUse">
<stop stop-color="#696E82"/>
<stop offset="1" stop-color="#16181E"/>
</linearGradient>
<linearGradient id="paint15_linear_398_105" x1="-49.3868" y1="76.645" x2="101.407" y2="148.07" gradientUnits="userSpaceOnUse">
<stop stop-color="#696E82"/>
<stop offset="1" stop-color="#16181E"/>
</linearGradient>
<linearGradient id="paint16_linear_398_105" x1="-49.3868" y1="76.645" x2="101.407" y2="148.07" gradientUnits="userSpaceOnUse">
<stop stop-color="#696E82"/>
<stop offset="1" stop-color="#16181E"/>
</linearGradient>
<linearGradient id="paint17_linear_398_105" x1="-49.3868" y1="76.645" x2="101.407" y2="148.07" gradientUnits="userSpaceOnUse">
<stop stop-color="#696E82"/>
<stop offset="1" stop-color="#16181E"/>
</linearGradient>
<linearGradient id="paint18_linear_398_105" x1="-49.3868" y1="76.645" x2="101.407" y2="148.07" gradientUnits="userSpaceOnUse">
<stop stop-color="#696E82"/>
<stop offset="1" stop-color="#16181E"/>
</linearGradient>
<linearGradient id="paint19_linear_398_105" x1="-49.3868" y1="76.645" x2="101.407" y2="148.07" gradientUnits="userSpaceOnUse">
<stop stop-color="#696E82"/>
<stop offset="1" stop-color="#16181E"/>
</linearGradient>
<linearGradient id="paint20_linear_398_105" x1="-49.3868" y1="76.645" x2="101.407" y2="148.07" gradientUnits="userSpaceOnUse">
<stop stop-color="#696E82"/>
<stop offset="1" stop-color="#16181E"/>
</linearGradient>
<linearGradient id="paint21_linear_398_105" x1="-49.3868" y1="76.645" x2="101.407" y2="148.07" gradientUnits="userSpaceOnUse">
<stop stop-color="#696E82"/>
<stop offset="1" stop-color="#16181E"/>
</linearGradient>
<linearGradient id="paint22_linear_398_105" x1="-49.3868" y1="76.645" x2="101.407" y2="148.07" gradientUnits="userSpaceOnUse">
<stop stop-color="#696E82"/>
<stop offset="1" stop-color="#16181E"/>
</linearGradient>
<linearGradient id="paint23_linear_398_105" x1="-49.3868" y1="76.645" x2="101.407" y2="148.07" gradientUnits="userSpaceOnUse">
<stop stop-color="#696E82"/>
<stop offset="1" stop-color="#16181E"/>
</linearGradient>
<linearGradient id="paint24_linear_398_105" x1="-49.3868" y1="76.645" x2="101.407" y2="148.07" gradientUnits="userSpaceOnUse">
<stop stop-color="#696E82"/>
<stop offset="1" stop-color="#16181E"/>
</linearGradient>
<linearGradient id="paint25_linear_398_105" x1="-49.3868" y1="76.645" x2="101.407" y2="148.07" gradientUnits="userSpaceOnUse">
<stop stop-color="#696E82"/>
<stop offset="1" stop-color="#16181E"/>
</linearGradient>
<linearGradient id="paint26_linear_398_105" x1="-49.3868" y1="76.645" x2="101.407" y2="148.07" gradientUnits="userSpaceOnUse">
<stop stop-color="#696E82"/>
<stop offset="1" stop-color="#16181E"/>
</linearGradient>
<linearGradient id="paint27_linear_398_105" x1="-49.3868" y1="76.645" x2="101.407" y2="148.07" gradientUnits="userSpaceOnUse">
<stop stop-color="#696E82"/>
<stop offset="1" stop-color="#16181E"/>
</linearGradient>
<linearGradient id="paint28_linear_398_105" x1="-49.3868" y1="76.645" x2="101.407" y2="148.07" gradientUnits="userSpaceOnUse">
<stop stop-color="#696E82"/>
<stop offset="1" stop-color="#16181E"/>
</linearGradient>
<linearGradient id="paint29_linear_398_105" x1="-49.3868" y1="76.645" x2="101.407" y2="148.07" gradientUnits="userSpaceOnUse">
<stop stop-color="#696E82"/>
<stop offset="1" stop-color="#16181E"/>
</linearGradient>
<linearGradient id="paint30_linear_398_105" x1="-49.3868" y1="76.645" x2="101.407" y2="148.07" gradientUnits="userSpaceOnUse">
<stop stop-color="#696E82"/>
<stop offset="1" stop-color="#16181E"/>
</linearGradient>
<linearGradient id="paint31_linear_398_105" x1="-49.3868" y1="76.645" x2="101.407" y2="148.07" gradientUnits="userSpaceOnUse">
<stop stop-color="#696E82"/>
<stop offset="1" stop-color="#16181E"/>
</linearGradient>
<linearGradient id="paint32_linear_398_105" x1="-49.3868" y1="76.645" x2="101.407" y2="148.07" gradientUnits="userSpaceOnUse">
<stop stop-color="#696E82"/>
<stop offset="1" stop-color="#16181E"/>
</linearGradient>
<linearGradient id="paint33_linear_398_105" x1="-49.3868" y1="76.645" x2="101.407" y2="148.07" gradientUnits="userSpaceOnUse">
<stop stop-color="#696E82"/>
<stop offset="1" stop-color="#16181E"/>
</linearGradient>
<linearGradient id="paint34_linear_398_105" x1="-49.3868" y1="76.645" x2="101.407" y2="148.07" gradientUnits="userSpaceOnUse">
<stop stop-color="#696E82"/>
<stop offset="1" stop-color="#16181E"/>
</linearGradient>
<linearGradient id="paint35_linear_398_105" x1="-49.3868" y1="76.645" x2="101.407" y2="148.07" gradientUnits="userSpaceOnUse">
<stop stop-color="#696E82"/>
<stop offset="1" stop-color="#16181E"/>
</linearGradient>
<linearGradient id="paint36_linear_398_105" x1="-49.3868" y1="76.645" x2="101.407" y2="148.07" gradientUnits="userSpaceOnUse">
<stop stop-color="#696E82"/>
<stop offset="1" stop-color="#16181E"/>
</linearGradient>
<linearGradient id="paint37_linear_398_105" x1="-49.3868" y1="76.645" x2="101.407" y2="148.07" gradientUnits="userSpaceOnUse">
<stop stop-color="#696E82"/>
<stop offset="1" stop-color="#16181E"/>
</linearGradient>
<linearGradient id="paint38_linear_398_105" x1="-49.3868" y1="76.645" x2="101.407" y2="148.07" gradientUnits="userSpaceOnUse">
<stop stop-color="#696E82"/>
<stop offset="1" stop-color="#16181E"/>
</linearGradient>
<linearGradient id="paint39_linear_398_105" x1="-49.3868" y1="76.645" x2="101.407" y2="148.07" gradientUnits="userSpaceOnUse">
<stop stop-color="#696E82"/>
<stop offset="1" stop-color="#16181E"/>
</linearGradient>
<linearGradient id="paint40_linear_398_105" x1="-49.3868" y1="76.645" x2="101.407" y2="148.07" gradientUnits="userSpaceOnUse">
<stop stop-color="#696E82"/>
<stop offset="1" stop-color="#16181E"/>
</linearGradient>
</defs>
</svg>
