<svg width="19" height="16" viewBox="0 0 19 16" fill="none" xmlns="http://www.w3.org/2000/svg">
<path d="M0.290924 6.99165C3.32328 5.61374 12.1541 1.62607 16.4741 0.0744297C17.1259 -0.158513 17.8412 0.173134 18.0757 0.820637C18.1472 1.01805 18.1671 1.2273 18.1353 1.43261L16.1999 13.9563C16.0846 14.7064 15.3812 15.2236 14.6221 15.1091C14.4273 15.0815 14.2445 15.0104 14.0776 14.9038L8.47789 11.307C7.81419 10.8806 7.6274 10.0041 8.05264 9.34477C8.11623 9.24607 8.19572 9.15131 8.28712 9.07235L13.4497 4.15686C13.6683 3.9476 13.3861 3.60411 13.1357 3.77783L5.77937 8.89073C5.08785 9.37241 4.20159 9.47112 3.41866 9.15921L0.310795 7.90369C0.0564431 7.80103 -0.0667588 7.51281 0.0365718 7.26013C0.0842629 7.13774 0.175671 7.04298 0.290924 6.99165Z" fill="black"/>
</svg>
